M48
; DRILL file {KiCad 8.0.0} date 2024-03-19T14:37:54-0500
; FORMAT={-:-/ absolute / inch / decimal}
; #@! TF.CreationDate,2024-03-19T14:37:54-05:00
; #@! TF.GenerationSoftware,Kicad,Pcbnew,8.0.0
; #@! TF.FileFunction,MixedPlating,1,2
FMAT,2
INCH
; #@! TA.AperFunction,Plated,PTH,ViaDrill
T1C0.0118
; #@! TA.AperFunction,Plated,PTH,ViaDrill
T2C0.0157
; #@! TA.AperFunction,Plated,PTH,ComponentDrill
T3C0.0276
; #@! TA.AperFunction,Plated,PTH,ComponentDrill
T4C0.0394
; #@! TA.AperFunction,Plated,PTH,ComponentDrill
T5C0.0402
; #@! TA.AperFunction,Plated,PTH,ComponentDrill
T6C0.0469
; #@! TA.AperFunction,Plated,PTH,ComponentDrill
T7C0.0512
; #@! TA.AperFunction,NonPlated,NPTH,ComponentDrill
T8C0.0925
; #@! TA.AperFunction,NonPlated,NPTH,ComponentDrill
T9C0.1102
; #@! TA.AperFunction,NonPlated,NPTH,ComponentDrill
T10C0.1181
; #@! TA.AperFunction,NonPlated,NPTH,ComponentDrill
T11C0.1260
%
G90
G05
T1
X4.9556Y-3.968
X5.0973Y-4.094
X5.1445Y-4.094
X5.1575Y-4.2149
X5.1748Y-4.1197
X5.2469Y-3.968
X5.2753Y-4.0548
X5.2847Y-4.2303
X5.3173Y-4.0935
X5.3571Y-3.5428
X5.3596Y-3.9705
X5.365Y-4.59
X5.5619Y-4.3066
X6.2677Y-4.2835
T2
X3.8504Y-4.1496
X3.8504Y-4.7165
X3.9685Y-4.6142
X3.9877Y-4.6772
X4.0866Y-4.7953
X4.1024Y-4.4094
X4.1181Y-3.5512
X4.189Y-4.5512
X4.2103Y-4.4747
X4.2126Y-3.6457
X4.2205Y-3.5354
X4.2598Y-3.6378
X4.2677Y-4.2992
X4.2736Y-4.6457
X4.2756Y-4.3937
X4.2913Y-3.4252
X4.3307Y-3.5433
X4.376Y-3.6526
X4.4173Y-3.6535
X4.4252Y-3.9843
X4.4839Y-3.8232
X4.5054Y-4.0143
X4.5232Y-3.8626
X4.5276Y-3.5433
X4.5621Y-3.9418
X4.567Y-3.5826
X4.6063Y-3.5433
X4.6457Y-3.7795
X4.6802Y-4.0599
X4.685Y-3.6614
X4.685Y-3.8189
X4.7008Y-4.3937
X4.7008Y-4.6614
X4.7244Y-3.5827
X4.7594Y-4.0988
X4.7638Y-3.6535
X4.7638Y-3.8346
X4.7988Y-4.1382
X4.811Y-3.6535
X4.811Y-3.8346
X4.8268Y-4.3937
X4.8268Y-4.622
X4.8898Y-4.5354
X4.8976Y-4.0
X4.9213Y-4.3701
X4.937Y-4.622
X4.9606Y-4.2913
X4.97Y-4.0947
X4.9921Y-3.5039
X4.9921Y-4.474
X4.9921Y-4.5591
X5.0Y-3.126
X5.0Y-4.2913
X5.0394Y-4.2913
X5.0472Y-4.474
X5.1024Y-4.2835
X5.1412Y-4.2918
X5.3205Y-4.2969
X5.3543Y-3.1181
X5.4094Y-2.5433
X5.4961Y-3.1339
X5.5039Y-3.252
X5.7087Y-2.6142
X5.8425Y-3.2992
X6.0157Y-2.8661
X6.2362Y-3.7402
T3
X3.8976Y-4.9606
X4.063Y-4.9606
X4.2126Y-4.9606
X5.0315Y-2.7874
X5.1654Y-2.7874
X5.441Y-3.7759
X5.441Y-3.8259
X5.441Y-3.8759
X5.441Y-3.9259
X5.441Y-3.9759
X5.491Y-3.7759
X5.491Y-3.8259
X5.491Y-3.8759
X5.491Y-3.9259
X5.491Y-3.9759
X5.7087Y-3.4886
X5.7087Y-3.7406
X5.7087Y-3.961
X5.8819Y-4.2913
X6.4016Y-2.9295
T4
X5.9918Y-3.8253
X5.9918Y-3.9253
X5.9918Y-4.0253
T5
X3.8177Y-3.1339
X3.8177Y-3.252
X3.8177Y-3.3701
X3.8177Y-3.4882
X3.8177Y-3.6063
X3.9567Y-2.6366
X4.0748Y-2.6366
X4.1929Y-2.6366
X4.311Y-2.6366
X4.4291Y-2.6366
X4.5472Y-2.6366
X6.4567Y-2.4807
X6.4567Y-2.5988
X6.4567Y-2.7169
X6.4579Y-3.8465
X6.4579Y-3.9646
X6.4579Y-4.0827
X6.4579Y-4.2008
T6
X5.0626Y-2.426
X5.1626Y-2.426
X5.2626Y-2.426
X5.3626Y-2.426
T7
X3.6535Y-4.5457
X3.6535Y-4.685
X3.7535Y-4.5457
X3.7535Y-4.685
X3.8535Y-4.6154
T8
X3.7035Y-4.3201
X3.7035Y-4.9106
T9
X3.5461Y-4.3201
X3.5461Y-4.9106
T10
X3.6476Y-3.2185
X3.6476Y-3.5217
X4.0413Y-2.4665
X4.4626Y-2.4665
X6.6268Y-2.5988
X6.628Y-3.9311
X6.628Y-4.1161
T11
X3.622Y-2.4409
X6.6535Y-4.8819
M30
